<svg xmlns="http://www.w3.org/2000/svg" width="14" height="14" viewBox="0 0 14 14"><g fill="none" fill-rule="evenodd" transform="translate(1 1)"><circle cx="6" cy="6" r="6" fill="transparent" stroke="#333" stroke-width=".5"/><path fill="#333" d="M8.052 4.547c0 .22-.025.408-.075.565-.05.156-.123.295-.22.417a1.825 1.825 0 0 1-.351.334 7.06 7.06 0 0 1-.47.314c-.15.094-.27.182-.36.264a.846.846 0 0 0-.21.286 1.26 1.26 0 0 0-.094.393c-.015.154-.022.35-.022.587h-.694c0-.27.01-.509.03-.717a1.55 1.55 0 0 1 .143-.538c.075-.151.184-.288.328-.411a4.33 4.33 0 0 1 .562-.395c.117-.074.221-.145.312-.214.091-.068.167-.143.229-.224a.902.902 0 0 0 .14-.268c.033-.098.049-.211.049-.34a.833.833 0 0 0-.352-.697c-.234-.177-.54-.266-.918-.266-.331 0-.627.062-.888.187a2.98 2.98 0 0 0-.738.508L4 3.835a2.919 2.919 0 0 1 .892-.591A3.036 3.036 0 0 1 6.105 3c.284 0 .546.032.784.097.24.064.445.162.618.292.173.13.307.292.402.486.095.193.143.417.143.672zM6.439 8.95a.488.488 0 0 1-.046.209.637.637 0 0 1-.121.176.553.553 0 0 1-.174.12.508.508 0 0 1-.417 0 .58.58 0 0 1-.297-.296.54.54 0 0 1 0-.422.591.591 0 0 1 .297-.308.488.488 0 0 1 .417 0c.066.031.124.073.174.126.05.052.09.113.12.182.032.069.047.14.047.213z"/></g></svg>